<?xml version="1.0" encoding="utf-8"?>
<!-- Generator: Adobe Illustrator 25.0.1, SVG Export Plug-In . SVG Version: 6.00 Build 0)  -->
<svg version="1.1" id="Camada_1" xmlns="http://www.w3.org/2000/svg" xmlns:xlink="http://www.w3.org/1999/xlink" x="0px" y="0px"
	 viewBox="0 0 1000 307" style="enable-background:new 0 0 1000 307;" xml:space="preserve">
<style type="text/css">
	.st0{fill-rule:evenodd;clip-rule:evenodd;fill:#1A98FF;}
</style>
<g transform="translate(269.07 109.56)">
	<path class="st0" d="M-26.4,85.8v1.6c0.2,1.3,0.9,2.8,2.2,4.1c68.1,66.3,158.1,106.1,258,106.1c71.3,0,154.1-24.2,211.2-69.6
		c9.4-7.6,1.4-18.8-8.3-14.4c-64,29.3-133.6,43.4-196.9,43.4C146,157,55.1,129.2-18.3,83.1c-1.3-0.8-2.6-1.2-3.7-1.2
		C-24.4,82-26.1,83.6-26.4,85.8"/>
	<path class="st0" d="M397.9,92.9c-2,1.5-3.1,3.3-3.3,4.8v0.9c0.2,1.7,1.9,2.9,4.7,2.5c18.4-2.4,59.4-7.6,66.7,2.4
		c7.3,10-8.1,51.5-15,69.9c-2.1,5.6,2.4,7.9,7.1,3.6c30.7-27.5,38.6-85.2,32.3-93.5c-3-4-17.1-7.7-34.5-7.7
		C437.2,75.9,414.8,80.2,397.9,92.9"/>
	<path class="st0" d="M581.3-47.7c-11.9,0-18.7,7.4-20.6,22.1c4.9,1,10.4,1.5,16.5,1.5c6.3,0,10.9-1,13.7-2.9
		c2.8-1.9,4.3-4.9,4.3-8.9C595.2-43.8,590.6-47.7,581.3-47.7 M578.7-7.3c-7,0-13.2-0.7-18.3-2.1c0.7,8.4,3.2,14.4,7.5,18
		c4.3,3.6,10.7,5.4,19.4,5.4c3.5,0,6.8-0.2,10.1-0.7c3.3-0.4,7.8-1.4,13.6-2.9c0.4-0.1,0.7-0.2,1.1-0.3c0.4-0.1,0.7-0.1,0.9-0.1
		c2.1,0,3.2,1.4,3.2,4.3v8.6c0,2-0.3,3.4-0.8,4.2c-0.6,0.8-1.6,1.5-3.2,2.1c-9,3.5-18.6,5.2-28.7,5.2c-15.3,0-27.1-4.2-35.3-12.7
		c-8.2-8.5-12.3-20.7-12.3-36.5c0-16.2,4.2-29,12.6-38.2c8.4-9.2,20.1-13.9,35-13.9c11.5,0,20.5,2.8,27,8.4
		c6.5,5.6,9.7,13.1,9.7,22.5c0,9.4-3.5,16.5-10.5,21.3C602.6-9.7,592.3-7.3,578.7-7.3 M683.1,14.4c13.2,0,19.9-10.1,19.9-30.4
		c0-20.1-6.6-30.2-19.9-30.2c-13.2,0-19.9,10.1-19.9,30.2C663.2,4.2,669.8,14.4,683.1,14.4 M683.1,35.7c-15,0-26.7-4.6-35.2-13.7
		C639.4,13,635.2,0.3,635.2-16c0-16.2,4.2-28.8,12.7-37.9c8.5-9.1,20.2-13.7,35.2-13.7c15,0,26.7,4.6,35.2,13.7
		c8.5,9.1,12.7,21.7,12.7,37.9c0,16.3-4.2,29-12.7,38.1C709.8,31.2,698.1,35.7,683.1,35.7 M470.9,14c6.1,0,11.9-1.8,17.4-5.3v-50.4
		c-5.4-3.2-11.7-4.8-18.7-4.8c-6.7,0-11.7,2.5-14.9,7.5c-3.3,5-4.9,12.6-4.9,22.8s1.7,17.8,5.2,22.7C458.3,11.5,463.7,14,470.9,14
		 M461.8,35c-8.2,0-15.3-2.1-21.4-6.4c-6.1-4.3-10.7-10.2-13.9-17.8c-3.2-7.6-4.8-16.3-4.8-26.3c0-15.8,3.7-28.4,11.2-37.9
		c7.4-9.5,17.3-14.2,29.5-14.2c10,0,18.6,2.9,25.9,8.6v-44.7c0-1.8,0.4-3,1.1-3.7c0.8-0.7,2-1.1,3.6-1.1h18.2c1.8,0,3,0.4,3.7,1.1
		c0.7,0.7,1,1.9,1,3.7V28.1c0,1.7-0.3,2.9-1,3.6c-0.7,0.8-1.9,1.1-3.7,1.1H496c-1.5,0-2.7-0.3-3.5-1c-0.8-0.6-1.4-1.7-1.8-3.2
		l-1.1-4.4C481.8,31.4,472.5,35,461.8,35 M389.7-79.8c-4.8,0-8.6-1.3-11.5-4c-2.9-2.7-4.4-6.3-4.4-10.9c0-4.6,1.5-8.2,4.4-10.9
		c2.9-2.7,6.7-4,11.5-4c4.8,0,8.6,1.3,11.5,4c2.9,2.7,4.4,6.3,4.4,10.9c0,4.6-1.5,8.2-4.4,10.9C398.3-81.1,394.5-79.8,389.7-79.8
		 M380.6,32.9c-1.6,0-2.8-0.4-3.6-1.1c-0.8-0.8-1.1-2-1.1-3.6v-88c0-1.8,0.4-3,1.1-3.7c0.8-0.7,2-1,3.6-1h18.2c1.8,0,3,0.3,3.7,1
		c0.7,0.7,1,1.9,1,3.7v88c0,1.7-0.3,2.9-1,3.6c-0.7,0.8-1.9,1.1-3.7,1.1H380.6z M305.5,32.9c-1.3,0-2.3-0.2-3.1-0.5
		c-0.8-0.3-1.5-0.8-2.1-1.5c-0.6-0.7-1.1-1.7-1.6-3l-32.4-85c-0.4-1-0.7-1.9-0.9-2.7c-0.3-0.8-0.4-1.5-0.4-2.1
		c0-1.9,1.3-2.9,3.8-2.9h18.9c2,0,3.5,0.4,4.4,1.1c0.9,0.8,1.7,2,2.2,3.8l19.5,67.6l19.9-67.6c0.5-1.8,1.2-3.1,2.2-3.8
		c0.9-0.8,2.4-1.1,4.4-1.1h18.4c2.5,0,3.8,1,3.8,2.9c0,0.6-0.1,1.3-0.4,2.1c-0.3,0.8-0.6,1.7-0.9,2.7l-32.4,85c-0.5,1.3-1,2.3-1.6,3
		c-0.6,0.7-1.2,1.2-2,1.5c-0.8,0.3-1.8,0.5-3.2,0.5L305.5,32.9z"/>
	<g>
		<path class="st0" d="M-269.1-59.9c0-1.8,0.4-3,1.2-3.7c0.8-0.7,2-1,3.6-1h13.7c2.9,0,4.7,1.4,5.3,4.2l1.3,5
			c3.8-3.7,8.4-6.6,13.8-8.8c5.4-2.2,10.9-3.2,16.4-3.2c12.3,0,22,4.5,29.2,13.6c7.2,9,10.7,21.3,10.7,36.7
			c0,10.6-1.8,19.8-5.3,27.7c-3.6,7.9-8.4,14-14.4,18.2c-6.1,4.3-13.1,6.4-20.9,6.4c-5.2,0-10.1-0.8-14.8-2.5
			c-4.7-1.7-8.7-3.9-12-6.9v41.8c0,1.8-0.4,3-1,3.7c-0.7,0.7-1.9,1-3.7,1h-18.2c-1.7,0-2.9-0.4-3.6-1c-0.8-0.7-1.2-1.9-1.2-3.7
			L-269.1-59.9z M-222.7-46.5c-6.6,0-12.8,1.7-18.6,5.2V8.9c5.6,3.4,11.8,5.2,18.6,5.2c7.1,0,12.3-2.4,15.7-7.3
			c3.4-4.8,5-12.5,5-22.9c0-10.6-1.7-18.3-4.9-23.1C-210.2-44.1-215.5-46.5-222.7-46.5"/>
		<path class="st0" d="M-129-50.1c5.1-5.6,9.8-9.6,14.3-11.9c4.5-2.3,9.3-3.5,14.3-3.5h2.7c1.8,0,3,0.4,3.8,1
			c0.8,0.7,1.1,1.9,1.1,3.7v16c0,1.7-0.3,2.9-1,3.6c-0.7,0.8-1.9,1.1-3.7,1.1c-0.9,0-2-0.1-3.4-0.2c-1.4-0.1-3.2-0.2-5.3-0.2
			c-2.9,0-6.5,0.4-10.6,1.2c-4.2,0.8-7.7,1.9-10.6,3.2v64.2c0,1.7-0.4,2.9-1,3.6c-0.7,0.8-1.9,1.1-3.7,1.1h-18.2
			c-1.6,0-2.8-0.4-3.6-1.1c-0.8-0.8-1.2-2-1.2-3.6v-88c0-1.8,0.4-3,1.2-3.7c0.8-0.7,2-1,3.6-1h13.7c2.9,0,4.7,1.4,5.3,4.2L-129-50.1
			z"/>
		<path class="st0" d="M-65.4-79.7c-4.8,0-8.7-1.3-11.6-4c-2.9-2.7-4.4-6.3-4.4-10.9s1.4-8.2,4.4-10.9c2.9-2.7,6.8-4,11.6-4
			c4.8,0,8.7,1.3,11.6,4c2.9,2.7,4.4,6.3,4.4,10.9s-1.5,8.2-4.4,10.9C-56.7-81.1-60.6-79.7-65.4-79.7 M-79.3-59.9
			c0-1.8,0.4-3,1.1-3.7c0.8-0.7,2-1.1,3.6-1.1h18.2c1.8,0,3,0.4,3.7,1.1c0.7,0.7,1.1,1.9,1.1,3.7v88c0,1.7-0.4,2.9-1.1,3.6
			c-0.7,0.8-1.9,1.1-3.7,1.1h-18.2c-1.7,0-2.9-0.4-3.6-1.1c-0.8-0.8-1.1-2-1.1-3.6V-59.9z"/>
		<path class="st0" d="M-2.8-55.3C4-59.8,10-62.9,15.4-64.7c5.4-1.9,10.9-2.8,16.6-2.8c11.4,0,19.4,4.1,24.1,12.2
			c6.5-4.3,12.5-7.5,18.2-9.4c5.7-1.9,11.6-2.9,17.7-2.9c8.9,0,15.7,2.5,20.6,7.5c4.9,5,7.3,11.9,7.3,20.8v67.4c0,1.7-0.4,2.9-1,3.6
			c-0.7,0.8-1.9,1.1-3.7,1.1H97c-1.7,0-2.8-0.4-3.6-1.1c-0.8-0.8-1.2-2-1.2-3.6v-61.3c0-8.7-3.9-13-11.6-13c-6.8,0-13.7,1.6-20.7,5
			v69.3c0,1.7-0.4,2.9-1,3.6c-0.7,0.8-1.9,1.1-3.7,1.1H37c-1.6,0-2.8-0.4-3.6-1.1c-0.8-0.8-1.1-2-1.1-3.6v-61.3
			c0-8.7-3.9-13-11.6-13c-7.1,0-14.1,1.7-20.9,5.2v69.1c0,1.7-0.4,2.9-1,3.6C-2,32.6-3.3,32.9-5,32.9h-18.3c-1.6,0-2.9-0.4-3.6-1.1
			c-0.8-0.8-1.1-2-1.1-3.6v-88.1c0-1.8,0.4-3,1.1-3.7c0.8-0.7,2-1,3.6-1h13.7c2.9,0,4.7,1.4,5.3,4.2L-2.8-55.3z"/>
		<path class="st0" d="M180.1-7c-7.2,0-13.5-0.7-18.8-2.1c0.8,8.5,3.3,14.6,7.7,18.3c4.4,3.7,11,5.5,19.9,5.5c3.5,0,7-0.2,10.4-0.7
			c3.3-0.4,8-1.4,14-2.9c0.4-0.1,0.8-0.2,1.1-0.3c0.4-0.1,0.7-0.1,0.9-0.1c2.2,0,3.2,1.5,3.2,4.4V24c0,2-0.3,3.5-0.8,4.3
			c-0.6,0.8-1.7,1.6-3.3,2.2c-9.3,3.6-19.1,5.3-29.5,5.3c-15.7,0-27.8-4.3-36.2-13C140.2,14.2,136,1.8,136-14.4
			c0-16.5,4.3-29.5,12.9-39c8.6-9.4,20.6-14.1,35.9-14.1c11.8,0,21,2.9,27.7,8.6c6.6,5.7,10,13.4,10,22.9c0,9.6-3.6,16.8-10.7,21.7
			C204.5-9.4,194-7,180.1-7 M182.7-48.2c-12.2,0-19.2,7.5-21.1,22.5c5.1,1,10.7,1.5,16.9,1.5c6.5,0,11.1-1,14.1-3
			c2.9-2,4.4-5,4.4-9.1C197-44.2,192.2-48.2,182.7-48.2"/>
	</g>
</g>
</svg>
